<svg width="506" height="120" viewBox="0 0 506 120" fill="none" xmlns="http://www.w3.org/2000/svg">
<rect width="506" height="120" fill="#F8FAFC"/>
<rect width="506" height="120" fill="#F8FAFC"/>
<g filter="url(#filter0_d)">
<path d="M267.032 51C269.123 51 271.085 51.448 272.92 52.344C274.797 53.24 276.163 54.6053 277.016 56.44L272.408 58.936C271.725 57.9547 270.787 57.08 269.592 56.312C268.397 55.5013 267.117 55.096 265.752 55.096C263.576 55.096 261.677 55.672 260.056 56.824C258.435 57.9333 257.197 59.448 256.344 61.368C255.491 63.288 255.064 65.4213 255.064 67.768C255.064 71.1387 255.64 73.8907 256.792 76.024C257.944 78.1147 259.757 79.16 262.232 79.16C265.731 79.16 268.141 77.752 269.464 74.936C270.787 72.12 271.448 69.048 271.448 65.72V62.84L277.08 60.472V77.304C277.08 77.8587 277.229 78.392 277.528 78.904C277.827 79.416 278.275 79.672 278.872 79.672C280.109 79.672 281.24 78.8187 282.264 77.112L283.224 78.136C282.712 79.5867 281.816 80.824 280.536 81.848C279.256 82.8293 277.976 83.32 276.696 83.32C274.861 83.32 273.496 82.6373 272.6 81.272C271.747 79.9067 271.32 78.0933 271.32 75.832H271.192C270.125 78.0933 268.675 79.992 266.84 81.528C265.048 83.0213 263.149 83.768 261.144 83.768C257.517 83.768 254.765 82.5307 252.888 80.056C251.053 77.5387 250.136 74.1893 250.136 70.008C250.136 66.68 250.883 63.5653 252.376 60.664C253.869 57.72 255.896 55.3733 258.456 53.624C261.059 51.8747 263.917 51 267.032 51ZM295.461 77.624C295.461 78.136 295.61 78.6267 295.909 79.096C296.207 79.5653 296.719 79.8 297.445 79.8C298.042 79.8 298.661 79.544 299.301 79.032C299.983 78.4773 300.495 77.9013 300.837 77.304L301.925 78.264C301.199 79.672 300.197 80.8667 298.917 81.848C297.637 82.8293 296.357 83.32 295.077 83.32C291.493 83.32 289.701 81.1653 289.701 76.856V26.296L295.461 23.864V77.624ZM341.52 37.24C345.573 37.24 348.88 38.3493 351.44 40.568C354.042 42.744 355.344 46.0293 355.344 50.424C355.344 53.9227 354.17 57.1867 351.824 60.216C349.477 63.2027 346.469 65.592 342.8 67.384C339.173 69.176 335.525 70.072 331.856 70.072C331.472 70.072 331.237 70.0293 331.152 69.944L331.472 68.216C334.33 67.9173 337.125 67.0213 339.856 65.528C342.586 64.0347 344.805 62.0933 346.512 59.704C348.261 57.272 349.136 54.584 349.136 51.64C349.136 48.44 348.154 45.88 346.192 43.96C344.272 42.04 341.413 41.08 337.616 41.08C334.672 41.08 331.557 41.784 328.272 43.192C325.029 44.5573 322.192 46.3493 319.76 48.568L318.544 47.224C321.658 44.3227 325.285 41.9333 329.424 40.056C333.605 38.1787 337.637 37.24 341.52 37.24ZM328.528 81.592L322.64 83.832V48.824L328.528 46.52V81.592ZM385.914 77.432C385.914 78.072 386.063 78.6053 386.362 79.032C386.703 79.416 387.172 79.608 387.77 79.608C388.666 79.608 389.754 78.776 391.034 77.112L391.994 78.072C391.098 79.992 390.01 81.3573 388.729 82.168C387.492 82.936 386.874 83.32 386.874 83.32C386.874 83.32 386.319 83.32 385.21 83.32C383.844 83.32 382.799 82.936 382.074 82.168C381.391 81.4 380.9 80.0347 380.602 78.072C380.303 76.0667 380.154 73.1013 380.154 69.176C380.154 66.8293 380.175 64.952 380.218 63.544L379.706 62.264H379.514C378.404 67.512 376.847 72.4187 374.842 76.984C372.879 81.5067 370.063 83.768 366.394 83.768C365.028 83.768 364.025 83.4267 363.385 82.744C362.788 82.0613 362.426 81.144 362.298 79.992C362.17 78.7973 362.106 76.984 362.106 74.552V56.504C362.106 55.7787 361.935 55.2027 361.594 54.776C361.295 54.3493 360.868 54.136 360.314 54.136C359.29 54.136 358.138 54.9893 356.858 56.696L356.09 55.672C356.772 54.0507 357.626 52.856 358.65 52.088C359.716 51.2773 360.698 50.7867 361.594 50.616C362.532 50.4027 363.002 50.36 363.002 50.488C362.959 50.488 362.895 50.5093 362.81 50.552C362.724 50.552 362.596 50.552 362.426 50.552C366.095 50.552 367.93 52.664 367.93 56.888V75.32C367.93 76.2587 368.036 76.9413 368.25 77.368C368.463 77.752 368.719 77.944 369.018 77.944C370.852 77.944 372.559 76.152 374.138 72.568C375.716 68.984 376.996 65.0373 377.978 60.728C379.002 56.4187 379.514 53.8373 379.514 52.984L385.914 50.104V77.432ZM420.587 50.424C422.294 50.424 423.403 51.064 423.915 52.344C424.427 53.5813 424.683 55.3093 424.683 57.528V59.512V77.624C424.683 78.0933 424.832 78.584 425.131 79.096C425.43 79.5653 425.856 79.8 426.411 79.8C427.136 79.8 427.755 79.5653 428.267 79.096C428.779 78.6267 429.291 78.0293 429.803 77.304L430.763 78.264C430.123 79.6293 429.163 80.824 427.883 81.848C426.603 82.8293 425.387 83.32 424.235 83.32C422.528 83.32 421.206 82.7867 420.267 81.72C419.328 80.6533 418.859 79.032 418.859 76.856V59.896C418.859 59.256 418.795 58.7227 418.667 58.296C418.539 57.8693 418.219 57.656 417.707 57.656C415.958 57.656 414.166 59.3413 412.331 62.712C410.496 66.0827 408.918 69.8587 407.595 74.04C406.315 78.1787 405.675 80.9093 405.675 82.232L400.107 83.896V56.504C400.107 55.9067 399.936 55.3733 399.595 54.904C399.296 54.392 398.848 54.136 398.251 54.136C397.227 54.136 396.118 55.0533 394.923 56.888L393.963 55.864C394.518 54.328 395.435 53.048 396.715 52.024C397.995 50.9573 399.275 50.424 400.555 50.424C402.347 50.424 403.67 50.8507 404.523 51.704C405.419 52.5573 405.867 53.7307 405.867 55.224V72.056H406.123C407.275 68.2587 408.384 64.952 409.451 62.136C410.518 59.32 412.011 56.6747 413.931 54.2C415.851 51.6827 418.07 50.424 420.587 50.424ZM444.165 51H453.061L451.141 55.096H444.165V77.624C444.165 78.264 444.357 78.7973 444.741 79.224C445.125 79.608 445.637 79.8 446.277 79.8C447.173 79.8 448.41 78.968 449.989 77.304L450.885 78.264C450.074 79.8853 449.093 81.1013 447.941 81.912C446.831 82.68 445.765 83.1493 444.741 83.32C443.759 83.5333 443.269 83.5547 443.269 83.384C443.311 83.384 443.375 83.3627 443.461 83.32C443.546 83.32 443.674 83.32 443.845 83.32C440.09 83.32 438.213 81.1653 438.213 76.856V55.096H433.413L435.397 51H438.213V36.28L444.165 33.976V51ZM472.632 51.768C469.432 53.816 466.914 56.0987 465.08 58.616C463.245 61.1333 462.328 64.0987 462.328 67.512C462.328 69.432 462.733 71.3733 463.544 73.336C464.354 75.256 465.57 76.856 467.192 78.136C468.813 79.416 470.754 80.056 473.016 80.056C474.85 80.056 476.472 79.6293 477.88 78.776C479.33 77.9227 480.44 76.7707 481.208 75.32C482.018 73.8693 482.424 72.2693 482.424 70.52C482.424 68.5147 481.805 66.4667 480.568 64.376C479.373 62.2853 477.794 60.5147 475.832 59.064C473.869 57.6133 471.864 56.8027 469.816 56.632C470.669 55.7787 471.693 54.8827 472.888 53.944C474.082 53.0053 475.298 52.088 476.536 51.192C479.48 52.1733 481.805 54.0507 483.512 56.824C485.218 59.5547 486.072 62.6053 486.072 65.976C486.072 68.9627 485.453 71.8427 484.216 74.616C483.021 77.3467 481.25 79.5867 478.904 81.336C476.557 83.0427 473.784 83.896 470.583 83.896C468.024 83.896 465.656 83.2773 463.48 82.04C461.346 80.76 459.661 79.032 458.424 76.856C457.186 74.68 456.568 72.2693 456.568 69.624C456.568 64.9733 457.933 60.9413 460.664 57.528C463.437 54.1147 467.042 51.7467 471.48 50.424L472.632 51.768Z" fill="black"/>
</g>
<g filter="url(#filter1_d)">
<path d="M27.3301 37.3938C31.3834 37.419 34.6822 38.5489 37.2266 40.7835C39.814 42.9757 41.0923 46.269 41.0615 50.6636C41.0414 53.5222 40.2331 56.2265 38.6366 58.7766C37.0829 61.2843 35.0196 63.4688 32.4465 65.3302C29.8737 67.1489 27.0911 68.4542 24.0988 69.2463L31.015 77.8015C32.2443 78.9612 33.4775 79.5449 34.7148 79.5526C35.7388 79.559 36.7868 79.1815 37.8589 78.4202C38.9309 77.6588 40.0254 76.7269 41.1425 75.6246L42.0967 76.4625C41.9245 76.6748 41.2571 77.5453 40.0943 79.0741C38.9745 80.5605 37.6646 81.7897 36.1644 82.7617C34.7069 83.734 33.2741 84.2157 31.8661 84.2069C30.6715 84.1995 29.5221 83.8297 28.4178 83.0974C27.3566 82.3228 26.1916 81.1209 24.923 79.4916L17.3091 70.036L17.7052 68.3104C20.5659 68.0296 23.3027 67.1719 25.9155 65.7375C28.5712 64.2607 30.7183 62.3114 32.3566 59.8895C33.9949 57.4677 34.8244 54.7848 34.8451 51.8409C34.8675 48.6409 33.9041 46.0749 31.955 44.1427C30.0485 42.2108 27.1966 41.233 23.3993 41.2094C20.4554 41.191 17.3358 41.8756 14.0407 43.2631C10.7885 44.6082 7.93868 46.3825 5.49117 48.5859L4.28462 47.2344C7.41956 44.3525 11.0629 41.9859 15.2146 40.1344C19.4091 38.2831 23.4476 37.3696 27.3301 37.3938ZM13.8355 81.6626L7.93106 83.9938L8.17778 48.7947L14.0814 46.5914L13.8355 81.6626ZM64.5875 50.8101C66.8915 50.8245 68.8071 51.4551 70.3344 52.702C71.8617 53.9488 72.6168 55.7882 72.5998 58.2202C72.586 60.1828 71.504 62.3734 69.3536 64.7921C67.2463 67.1683 64.7562 69.3502 61.8836 71.3377C59.0536 73.3254 56.6331 74.7184 54.6221 75.5165C55.6768 77.2298 56.8844 78.432 58.2449 79.1232C59.6057 79.7717 61.2035 80.1016 63.0381 80.113C65.0861 80.1258 67.1163 79.6264 69.1287 78.615C71.1842 77.5611 72.8791 76.2063 74.2134 74.5506L74.9719 75.8993C72.8625 78.5742 70.6293 80.6297 68.2725 82.0657C65.9161 83.459 63.0312 84.1451 59.6179 84.1238C57.0153 84.1076 54.6945 83.4531 52.6555 82.1604C50.6165 80.8677 49.0285 79.1511 47.8915 77.0106C46.7547 74.8275 46.1952 72.4773 46.2129 69.96C46.235 66.8028 47.1098 63.7362 48.8374 60.7602C50.565 57.7842 52.8432 55.3877 55.672 53.5706C58.5011 51.7109 61.4729 50.7907 64.5875 50.8101ZM61.2313 54.8213C59.354 54.8096 57.6645 55.3964 56.1629 56.5818C54.7039 57.7674 53.5411 59.2961 52.6746 61.1681C51.8508 63.0404 51.4319 64.9791 51.4178 66.9844C51.3993 69.6297 52.0021 71.8948 53.2263 73.7798C55.0239 72.9803 56.9737 71.7764 59.0757 70.1682C61.178 68.5172 62.9612 66.7363 64.4253 64.8254C65.8894 62.9145 66.627 61.1697 66.638 59.5911C66.6602 56.4338 64.8579 54.8439 61.2313 54.8213ZM97.767 51.2088C99.5163 51.2197 101.134 51.7205 102.621 52.7111C104.107 53.7017 105.269 55.2663 106.108 57.4049L100.841 60.0602C100.425 58.5642 99.5798 57.3856 98.3058 56.5243C97.0745 55.6633 95.7548 55.2284 94.3468 55.2196C92.2989 55.2068 90.4818 55.7289 88.8957 56.7857C87.3096 57.8425 86.0841 59.2002 85.2191 60.8589C84.3541 62.5175 83.9156 64.2001 83.9037 65.9068C83.8827 68.8933 84.3553 71.4777 85.3214 73.6597C86.2877 75.7991 87.6202 77.4501 89.3188 78.6127C91.0176 79.7327 92.9337 80.2993 95.067 80.3126C97.6269 80.3285 99.8712 79.7238 101.8 78.4985C103.729 77.2305 105.553 75.6205 107.274 73.6685L108.355 74.6992C106.242 77.8861 104.006 80.3043 101.648 81.9536C99.3323 83.5605 96.4894 84.3535 93.1188 84.3325C90.4735 84.316 88.1099 83.6826 86.0279 82.4323C83.9459 81.182 82.3156 79.4225 81.1368 77.1537C79.9583 74.8423 79.3795 72.1934 79.4004 69.2068C79.4238 65.8788 80.1277 62.8538 81.5121 60.1317C82.8968 57.367 84.9602 55.1825 87.7022 53.5782C90.4442 51.9739 93.7991 51.1841 97.767 51.2088ZM131.274 51.2256C133.578 51.2399 135.493 51.8705 137.021 53.1174C138.548 54.3643 139.303 56.2037 139.286 58.6356C139.272 60.5982 138.19 62.7889 136.04 65.2075C133.932 67.5838 131.442 69.7656 128.57 71.7531C125.74 73.7409 123.319 75.1338 121.308 75.932C122.363 77.6452 123.571 78.8474 124.931 79.5386C126.292 80.1871 127.89 80.517 129.724 80.5285C131.772 80.5412 133.802 80.0419 135.815 79.0304C137.87 77.9765 139.565 76.6217 140.9 74.966L141.658 76.3147C139.549 78.9896 137.316 81.0451 134.959 82.4811C132.602 83.8745 129.717 84.5605 126.304 84.5392C123.701 84.523 121.381 83.8686 119.342 82.5758C117.303 81.2831 115.715 79.5665 114.578 77.4261C113.441 75.2429 112.881 72.8927 112.899 70.3755C112.921 67.2182 113.796 64.1516 115.524 61.1756C117.251 58.1997 119.529 55.8032 122.358 53.9861C125.187 52.1263 128.159 51.2062 131.274 51.2256ZM127.918 55.2367C126.04 55.225 124.351 55.8119 122.849 56.9972C121.39 58.1828 120.227 59.7116 119.361 61.5836C118.537 63.4558 118.118 65.3945 118.104 67.3998C118.086 70.0451 118.688 72.3102 119.912 74.1952C121.71 73.3957 123.66 72.1919 125.762 70.5836C127.864 68.9327 129.647 67.1517 131.111 65.2408C132.576 63.3299 133.313 61.5851 133.324 60.0065C133.346 56.8493 131.544 55.2593 127.918 55.2367ZM155.939 51.9552L164.835 52.0107L162.886 56.0946L155.91 56.0511L155.752 78.5786C155.748 79.2186 155.936 79.7531 156.317 80.1821C156.698 80.5685 157.209 80.7637 157.849 80.7677C158.745 80.7733 159.988 79.949 161.578 78.2949L162.467 79.2604C161.645 80.8767 160.656 82.0865 159.498 82.89C158.383 83.6511 157.313 84.1137 156.288 84.278C155.305 84.4852 154.815 84.5035 154.816 84.3329C154.858 84.3331 154.923 84.3122 155.008 84.2701C155.094 84.2706 155.222 84.2714 155.392 84.2724C151.638 84.2491 149.775 82.0827 149.806 77.7735L149.958 56.0141L145.158 55.9842L147.171 51.9006L149.987 51.9182L150.09 37.1985L156.058 34.9316L155.939 51.9552ZM185.743 52.1409C187.834 52.1539 189.793 52.6141 191.622 53.5216C193.493 54.4292 194.848 55.803 195.689 57.643L191.063 60.1102C190.388 59.1246 189.455 58.2441 188.266 57.4687C187.077 56.6506 185.8 56.2373 184.434 56.2288C182.258 56.2153 180.356 56.7794 178.726 57.9213C177.097 59.0205 175.849 60.5274 174.983 62.4421C174.116 64.3567 173.674 66.4873 173.658 68.8339C173.634 72.2045 174.191 74.96 175.328 77.1005C176.465 79.1983 178.271 80.2549 180.746 80.2703C184.244 80.2921 186.665 78.8992 188.007 76.0915C189.35 73.2838 190.033 70.216 190.056 66.8881L190.076 64.0081L195.725 61.6753L195.607 78.5069C195.603 79.0615 195.748 79.5958 196.043 80.1096C196.338 80.6235 196.785 80.8822 197.382 80.886C198.619 80.8937 199.756 80.0474 200.792 78.3472L201.745 79.3771C201.222 80.8246 200.318 82.0563 199.031 83.0723C197.744 84.0456 196.46 84.5283 195.18 84.5203C193.346 84.5089 191.985 83.8177 191.099 82.4468C190.255 81.0762 189.841 79.2603 189.857 76.999L189.729 76.9982C188.647 79.2528 187.183 81.1424 185.337 82.667C183.535 84.1491 181.631 84.8839 179.626 84.8714C175.999 84.8488 173.256 83.5944 171.396 81.1081C169.579 78.5794 168.685 75.2244 168.714 71.0432C168.738 67.7153 169.506 64.6053 171.02 61.7134C172.534 58.7787 174.577 56.4448 177.149 54.7114C179.764 52.9783 182.629 52.1215 185.743 52.1409ZM215.021 49.6993C216.472 49.7083 217.516 49.9708 218.152 50.4868C218.831 51.003 219.167 51.7944 219.159 52.8611C219.151 54.0131 218.909 55.0356 218.434 55.9286C218.001 56.8219 217.526 57.587 217.01 58.2238C216.493 58.8606 216.149 59.3065 215.976 59.5614C216.482 60.4179 217.435 61.4265 218.835 62.5873C219.98 63.5757 220.892 64.4561 221.569 65.2283C222.246 66.0006 222.815 67.0495 223.275 68.375C223.778 69.6582 224.023 71.2384 224.01 73.1157C223.994 75.3343 223.468 77.3577 222.431 79.186C221.437 81.0145 220.04 82.4565 218.241 83.512C216.484 84.5677 214.496 85.0887 212.277 85.0748C210.912 85.0663 209.421 84.7797 207.803 84.2149C206.186 83.6075 204.997 82.7681 204.237 81.6967L208.565 76.0275C209.579 77.3565 210.638 78.4938 211.741 79.4394C212.886 80.3852 214.12 80.8622 215.443 80.8705C217.278 80.8819 218.839 80.2943 220.127 79.1076C221.459 77.8786 222.13 76.4107 222.142 74.7041C222.152 73.3388 221.585 71.9912 220.443 70.6614C219.343 69.2892 217.776 67.6794 215.74 65.832C215.486 65.6171 214.998 65.1874 214.277 64.5429C213.557 63.8557 213.027 63.2978 212.689 62.869L208.163 69.4329L206.124 68.0762L211.294 61.0042C210.708 59.3366 210.421 57.6921 210.433 56.0708C210.446 54.2362 210.861 52.7241 211.681 51.5345C212.5 50.3022 213.613 49.6905 215.021 49.6993ZM215.004 52.1952C214.449 52.1917 214.086 52.3388 213.913 52.6364C213.783 52.9343 213.716 53.3819 213.711 53.9792C213.706 54.7472 213.808 55.4091 214.018 55.9651C214.227 56.5211 214.374 56.906 214.457 57.1199C214.929 56.8241 215.359 56.2935 215.749 55.5279C216.181 54.7199 216.399 54.0386 216.403 53.4839C216.406 53.0999 216.28 52.8005 216.025 52.5856C215.814 52.3282 215.473 52.1981 215.004 52.1952Z" fill="#8C0DEF"/>
</g>
<defs>
<filter id="filter0_d" x="246.136" y="23.864" width="243.936" height="68.032" filterUnits="userSpaceOnUse" color-interpolation-filters="sRGB">
<feFlood flood-opacity="0" result="BackgroundImageFix"/>
<feColorMatrix in="SourceAlpha" type="matrix" values="0 0 0 0 0 0 0 0 0 0 0 0 0 0 0 0 0 0 127 0" result="hardAlpha"/>
<feOffset dy="4"/>
<feGaussianBlur stdDeviation="2"/>
<feComposite in2="hardAlpha" operator="out"/>
<feColorMatrix type="matrix" values="0 0 0 0 0 0 0 0 0 0 0 0 0 0 0 0 0 0 0.25 0"/>
<feBlend mode="normal" in2="BackgroundImageFix" result="effect1_dropShadow"/>
<feBlend mode="normal" in="SourceGraphic" in2="effect1_dropShadow" result="shape"/>
</filter>
<filter id="filter1_d" x="0.284607" y="34.9316" width="227.725" height="58.1435" filterUnits="userSpaceOnUse" color-interpolation-filters="sRGB">
<feFlood flood-opacity="0" result="BackgroundImageFix"/>
<feColorMatrix in="SourceAlpha" type="matrix" values="0 0 0 0 0 0 0 0 0 0 0 0 0 0 0 0 0 0 127 0" result="hardAlpha"/>
<feOffset dy="4"/>
<feGaussianBlur stdDeviation="2"/>
<feComposite in2="hardAlpha" operator="out"/>
<feColorMatrix type="matrix" values="0 0 0 0 0 0 0 0 0 0 0 0 0 0 0 0 0 0 0.25 0"/>
<feBlend mode="multiply" in2="BackgroundImageFix" result="effect1_dropShadow"/>
<feBlend mode="normal" in="SourceGraphic" in2="effect1_dropShadow" result="shape"/>
</filter>
</defs>
</svg>
